<svg width="264" height="298" viewBox="0 0 264 298" fill="none" xmlns="http://www.w3.org/2000/svg">
<g clip-path="url(#clip0_1647_5705)">
<path d="M149.663 229.054C212.81 229.054 264 177.863 264 114.717C264 51.5706 212.81 0.380371 149.663 0.380371C86.5169 0.380371 35.3267 51.5706 35.3267 114.717C35.3267 177.863 86.5169 229.054 149.663 229.054Z" fill="#F2F2F2"/>
<path d="M224.381 51.5117H14.9318C14.4826 51.5021 14.1263 51.1302 14.1359 50.6811C14.1452 50.2455 14.4962 49.8946 14.9318 49.8853H224.381C224.83 49.8949 225.186 50.2667 225.177 50.7159C225.167 51.1515 224.816 51.5024 224.381 51.5117Z" fill="#CACACA"/>
<path d="M153.001 78.918H95.101C90.7521 78.918 87.2266 82.4435 87.2266 86.7924V86.7924C87.2266 91.1414 90.7521 94.6669 95.101 94.6669H153.001C157.35 94.6669 160.875 91.1414 160.875 86.7924C160.875 82.4435 157.35 78.918 153.001 78.918Z" fill="white"/>
<path d="M57.6972 110.416H190.404C194.753 110.416 198.279 113.942 198.279 118.29C198.279 122.639 194.753 126.165 190.404 126.165H57.6972C53.3483 126.165 49.8228 122.639 49.8228 118.29C49.8228 113.942 53.3483 110.416 57.6972 110.416Z" fill="white"/>
<path d="M57.6972 141.914H190.404C194.753 141.914 198.279 145.44 198.279 149.789C198.279 154.137 194.753 157.663 190.404 157.663H57.6972C53.3483 157.663 49.8228 154.137 49.8228 149.789C49.8228 145.44 53.3483 141.914 57.6972 141.914Z" fill="white"/>
<path d="M41.2515 296.467L40.9391 296.437C30.3424 295.343 20.7631 289.644 14.7459 280.853C13.0978 278.404 11.7646 275.757 10.7779 272.974L10.6831 272.709L10.9638 272.686C14.3161 272.416 17.7598 271.847 19.2896 271.577L9.42485 268.234L9.36386 267.941C8.779 265.194 9.92479 262.367 12.2576 260.801C14.5967 259.161 17.6986 259.108 20.0919 260.669C21.166 261.355 22.2894 262.034 23.3757 262.692C27.1088 264.95 30.9691 267.285 33.8633 270.48C38.252 275.421 40.1756 282.08 39.0985 288.6L41.2515 296.467Z" fill="#F2F2F2"/>
<path d="M77.1097 291.561L81.9713 291.561L84.2846 272.807L77.1084 272.807L77.1097 291.561Z" fill="#A0616A"/>
<path d="M76.9382 296.633L91.8895 296.633V296.444C91.8893 293.23 89.2839 290.624 86.07 290.624L83.3386 288.552L78.2431 290.624L76.938 290.625L76.9382 296.633Z" fill="#2F2E41"/>
<path d="M38.1455 278.095L42.0343 281.012L55.1394 267.399L49.3991 263.093L38.1455 278.095Z" fill="#A0616A"/>
<path d="M34.9648 282.049L46.9247 291.021L47.0382 290.87C48.9668 288.299 48.4463 284.652 45.8756 282.723L44.9341 279.426L39.6146 278.026L38.5706 277.243L34.9648 282.049Z" fill="#2F2E41"/>
<path d="M54.3075 203.554C54.3075 203.554 54.5759 210.875 54.9145 216.747C54.97 217.709 52.7141 218.756 52.7725 219.803C52.8112 220.498 53.2353 221.174 53.2747 221.898C53.3162 222.663 52.7308 223.34 52.7725 224.131C52.8132 224.904 53.4811 225.79 53.5214 226.581C53.955 235.093 55.5266 245.283 53.9528 248.131C53.1772 249.535 43.291 268.984 43.291 268.984C43.291 268.984 48.7993 277.246 50.3731 274.492C52.4517 270.855 68.4716 253.836 68.4716 250.586C68.4716 247.34 72.1779 223.014 72.1779 223.014L74.7622 237.41L75.9471 240.262L75.5748 241.937L76.3406 244.197L76.382 246.433L77.1275 250.586C77.1275 250.586 74.8849 282.943 76.1478 283.844C77.4147 284.749 83.5486 286.374 84.2725 284.749C84.9925 283.124 89.6791 250.98 89.6791 250.98C89.6791 250.98 90.4345 236.249 91.2529 222.557C91.3 221.762 91.8588 220.802 91.9021 220.019C91.9532 219.111 91.5991 217.93 91.6463 217.049C91.6975 216.038 92.146 215.326 92.1893 214.358C92.5237 206.878 90.6463 197.77 90.0483 196.873C88.2423 194.166 86.6174 192.002 86.6174 192.002C86.6174 192.002 62.2936 184.01 55.7939 192.131L54.3075 203.554Z" fill="#2F2E41"/>
<path d="M78.5673 128.268L68.9248 126.339L64.425 132.446C56.0286 140.702 55.9022 147.989 57.4011 159.668V176.06L56.3162 187.049C56.3162 187.049 52.4758 195.082 56.4368 196.953C60.3978 198.823 86.4158 198.663 88.8999 197.917C91.3839 197.17 89.2308 196.254 88.5785 192.774C87.3531 186.238 88.1727 189.391 88.2571 187.31C89.4661 157.459 86.65 145.204 86.364 141.983L81.4601 133.089L78.5673 128.268Z" fill="#3F3D56"/>
<path d="M129.389 152.336C128.384 154.24 126.026 154.969 124.122 153.964C123.919 153.857 123.726 153.732 123.545 153.591L102.721 166.813L102.781 159.614L123.01 147.875C124.45 146.26 126.928 146.118 128.544 147.559C129.895 148.765 130.245 150.74 129.389 152.336Z" fill="#A0616A"/>
<path d="M70.9541 136.605L68.5834 136.354C66.3928 136.127 64.2436 137.065 62.9208 138.826C62.4142 139.493 62.0503 140.258 61.8517 141.073L61.8503 141.079C61.2556 143.53 62.1884 146.099 64.2172 147.598L72.4054 153.635C78.1517 161.399 88.9512 166.55 101.619 170.735L121.31 158.507L114.345 150.072L100.839 157.31L80.7635 141.769L80.7519 141.76L73.1111 136.837L70.9541 136.605Z" fill="#3F3D56"/>
<path d="M75.309 123.533C81.5191 123.533 86.5535 118.499 86.5535 112.288C86.5535 106.078 81.5191 101.044 75.309 101.044C69.0988 101.044 64.0645 106.078 64.0645 112.288C64.0645 118.499 69.0988 123.533 75.309 123.533Z" fill="#A0616A"/>
<path d="M75.5688 123.536C75.4782 123.539 75.3873 123.541 75.2966 123.543C75.2577 123.644 75.2158 123.744 75.1675 123.842L75.5688 123.536Z" fill="#2F2E41"/>
<path d="M78.6548 112.601C78.6724 112.711 78.6994 112.82 78.7354 112.927C78.7206 112.815 78.6935 112.706 78.6548 112.601Z" fill="#2F2E41"/>
<path d="M86.6972 101.525C86.2343 102.962 85.8212 101.139 84.2987 101.467C82.4671 101.862 80.3357 101.726 78.8358 100.604C76.6009 98.9639 73.7047 98.5224 71.0828 99.4219C68.5163 100.33 64.2165 100.97 63.5478 103.609C63.3153 104.526 63.223 105.522 62.6596 106.282C62.167 106.947 61.3894 107.326 60.7392 107.837C58.5438 109.565 60.2218 114.472 61.2609 117.066C62.3 119.659 64.6835 121.548 67.3042 122.515C69.8397 123.452 72.5917 123.617 75.2966 123.543C75.7671 122.323 75.5638 120.914 75.1756 119.649C74.7554 118.279 74.1331 116.958 73.9576 115.536C73.782 114.115 74.1675 112.5 75.3595 111.706C76.4551 110.975 78.238 111.42 78.6549 112.601C78.4117 111.125 79.9066 109.697 81.4481 109.446C83.103 109.176 84.7579 109.774 86.4081 110.071C88.0583 110.368 87.4726 103.421 86.6972 101.525Z" fill="#2F2E41"/>
<path d="M149.585 130.889C150.633 118.224 141.215 107.107 128.55 106.058C115.884 105.01 104.767 114.428 103.719 127.093C102.671 139.759 112.088 150.876 124.754 151.924C137.419 152.973 148.537 143.555 149.585 130.889Z" fill="#9747FF"/>
<path d="M132.697 119.403L126.652 125.448L120.607 119.403C119.629 118.425 118.042 118.425 117.064 119.403C116.085 120.382 116.085 121.968 117.064 122.947L123.109 128.991L117.064 135.036C116.086 136.015 116.088 137.602 117.067 138.579C118.045 139.556 119.629 139.556 120.607 138.579L126.652 132.535L132.697 138.579C133.676 139.557 135.263 139.556 136.24 138.576C137.216 137.598 137.216 136.014 136.24 135.036L130.195 128.991L136.24 122.947C137.219 121.968 137.219 120.382 136.24 119.403C135.262 118.425 133.675 118.425 132.697 119.403Z" fill="white"/>
<path d="M117.584 109.65C118.262 111.694 117.156 113.9 115.112 114.578C114.895 114.651 114.671 114.704 114.444 114.737L109.568 138.917L104.415 133.89L109.949 111.166C109.78 109.007 111.394 107.122 113.552 106.953C115.358 106.813 117.025 107.928 117.584 109.65Z" fill="#A0616A"/>
<path d="M65.7776 140.927L63.955 142.464C62.2745 143.887 61.4636 146.087 61.8184 148.261C61.9495 149.089 62.2495 149.881 62.6997 150.588L62.7034 150.594C64.0605 152.72 66.5599 153.825 69.0459 153.398L79.0709 151.669C88.6521 152.898 99.8458 148.671 111.636 142.427L116.443 119.752L105.535 118.938L101.408 133.695L76.2951 137.423L76.2803 137.425L67.4381 139.531L65.7776 140.927Z" fill="#3F3D56"/>
<path d="M122.861 297.021L0.534248 297.16C0.238237 297.159 -0.000955935 296.918 2.87249e-06 296.622C0.000952677 296.327 0.239583 296.089 0.534248 296.088L122.861 295.949C123.157 295.95 123.396 296.191 123.395 296.487C123.394 296.782 123.156 297.02 122.861 297.021Z" fill="#CACACA"/>
<path d="M25.5577 41.2098C27.6601 41.2098 29.3644 39.4675 29.3644 37.3183C29.3644 35.1691 27.6601 33.4268 25.5577 33.4268C23.4553 33.4268 21.751 35.1691 21.751 37.3183C21.751 39.4675 23.4553 41.2098 25.5577 41.2098Z" fill="#3F3D56"/>
<path d="M38.7081 41.2098C40.8104 41.2098 42.5148 39.4675 42.5148 37.3183C42.5148 35.1691 40.8104 33.4268 38.7081 33.4268C36.6057 33.4268 34.9014 35.1691 34.9014 37.3183C34.9014 39.4675 36.6057 41.2098 38.7081 41.2098Z" fill="#3F3D56"/>
<path d="M51.8585 41.2098C53.9608 41.2098 55.6651 39.4675 55.6651 37.3183C55.6651 35.1691 53.9608 33.4268 51.8585 33.4268C49.7561 33.4268 48.0518 35.1691 48.0518 37.3183C48.0518 39.4675 49.7561 41.2098 51.8585 41.2098Z" fill="#3F3D56"/>
<path d="M66.8532 40.3939C66.7363 40.3939 66.6196 40.3486 66.5314 40.2585L63.9629 37.6328C63.7917 37.4579 63.7917 37.1783 63.9629 37.0033L66.5314 34.3779C66.7057 34.2003 66.991 34.1974 67.168 34.3708C67.3458 34.5447 67.3489 34.8298 67.175 35.0073L64.9144 37.3181L67.175 39.629C67.3489 39.8066 67.3458 40.0917 67.168 40.2656C67.0805 40.3513 66.9669 40.3939 66.8532 40.3939Z" fill="#3F3D56"/>
<path d="M71.1694 40.3942C71.0558 40.3942 70.9421 40.3516 70.8547 40.2659C70.6768 40.092 70.6738 39.8072 70.8476 39.6294L73.108 37.3184L70.8476 35.0077C70.6738 34.8301 70.6768 34.545 70.8547 34.3711C71.032 34.1971 71.3173 34.2004 71.4912 34.3782L74.0595 37.0037C74.2307 37.1786 74.2307 37.4582 74.0595 37.6332L71.4912 40.2588C71.4031 40.349 71.2863 40.3942 71.1694 40.3942Z" fill="#3F3D56"/>
<path d="M205.542 33.8774H200.766C200.221 33.8774 199.78 34.3186 199.78 34.8633V39.6438C199.78 40.1885 200.221 40.6296 200.766 40.6296H205.542C206.087 40.6296 206.532 40.1885 206.532 39.6438V34.8633C206.532 34.3186 206.087 33.8774 205.542 33.8774Z" fill="#3F3D56"/>
<path d="M193.839 33.8774H189.062C188.518 33.8774 188.077 34.3186 188.077 34.8633V39.6438C188.077 40.1885 188.518 40.6296 189.062 40.6296H193.839C194.383 40.6296 194.829 40.1885 194.829 39.6438V34.8633C194.829 34.3186 194.383 33.8774 193.839 33.8774Z" fill="#3F3D56"/>
<path d="M216.57 34.1025H211.794C211.25 34.1025 210.809 34.5437 210.809 35.0884V39.8689C210.809 40.4136 211.25 40.8547 211.794 40.8547H216.57C217.115 40.8547 217.561 40.4136 217.561 39.8689V35.0884C217.561 34.5437 217.115 34.1025 216.57 34.1025Z" fill="#3F3D56"/>
<path d="M144.583 35.9209H106.406C105.74 35.9209 105.204 36.4611 105.204 37.1228C105.204 37.7845 105.74 38.3247 106.406 38.3247H144.583C145.244 38.3247 145.785 37.7845 145.785 37.1228C145.785 36.4611 145.244 35.9209 144.583 35.9209Z" fill="#3F3D56"/>
</g>
<defs>
<clipPath id="clip0_1647_5705">
<rect width="264" height="296.779" fill="white" transform="translate(0 0.380371)"/>
</clipPath>
</defs>
</svg>
