<svg width="284" height="217" viewBox="0 0 284 217" fill="none" xmlns="http://www.w3.org/2000/svg">
<g clip-path="url(#clip0_1647_5808)">
<path d="M113.642 45.5415H112.606V17.1593C112.606 15.0021 112.181 12.866 111.356 10.873C110.53 8.88 109.32 7.06912 107.795 5.54374C106.27 4.01837 104.459 2.80838 102.466 1.98285C100.473 1.15732 98.3367 0.732424 96.1795 0.732422H36.048C31.6913 0.732414 27.5131 2.46308 24.4324 5.54371C21.3518 8.62433 19.6211 12.8026 19.6211 17.1592V172.866C19.6211 175.023 20.046 177.16 20.8715 179.152C21.697 181.145 22.907 182.956 24.4324 184.482C25.9578 186.007 27.7687 187.217 29.7616 188.043C31.7546 188.868 33.8907 189.293 36.0479 189.293H96.1794C100.536 189.293 104.714 187.562 107.795 184.482C110.876 181.401 112.606 177.223 112.606 172.866V65.7444H113.642V45.5415Z" fill="#3F3D56"/>
<path d="M96.8423 5.00635H88.9932C89.3541 5.89131 89.4919 6.85146 89.3944 7.80222C89.2969 8.75298 88.967 9.66517 88.4339 10.4584C87.9008 11.2517 87.1808 11.9017 86.3373 12.3511C85.4939 12.8005 84.5528 13.0356 83.597 13.0357H49.1485C48.1927 13.0357 47.2516 12.8005 46.4082 12.3511C45.5647 11.9017 44.8447 11.2517 44.3116 10.4584C43.7785 9.66517 43.4486 8.75299 43.3511 7.80223C43.2536 6.85147 43.3914 5.89131 43.7523 5.00635H36.4212C34.8102 5.00635 33.215 5.32365 31.7267 5.94014C30.2383 6.55664 28.886 7.46025 27.7468 8.59938C26.6077 9.73851 25.7041 11.0909 25.0876 12.5792C24.4711 14.0675 24.1538 15.6627 24.1538 17.2737V172.752C24.1538 174.363 24.4711 175.958 25.0876 177.447C25.7041 178.935 26.6077 180.287 27.7468 181.427C28.886 182.566 30.2383 183.469 31.7267 184.086C33.215 184.702 34.8102 185.02 36.4212 185.02H96.8423C98.4533 185.02 100.049 184.702 101.537 184.086C103.025 183.469 104.378 182.566 105.517 181.427C106.656 180.287 107.559 178.935 108.176 177.447C108.792 175.958 109.11 174.363 109.11 172.752V17.2737C109.11 15.6627 108.792 14.0675 108.176 12.5792C107.559 11.0909 106.656 9.73851 105.517 8.59938C104.378 7.46025 103.025 6.55664 101.537 5.94014C100.049 5.32365 98.4533 5.00635 96.8423 5.00635Z" fill="white"/>
<path d="M132.916 189.32H0.347947C0.255666 189.32 0.167164 189.283 0.101911 189.218C0.0366584 189.153 0 189.064 0 188.972C0 188.88 0.0366584 188.791 0.101911 188.726C0.167164 188.661 0.255666 188.624 0.347947 188.624H132.916C133.008 188.624 133.097 188.661 133.162 188.726C133.227 188.791 133.264 188.88 133.264 188.972C133.264 189.064 133.227 189.153 133.162 189.218C133.097 189.283 133.008 189.32 132.916 189.32Z" fill="#CBCBCB"/>
<path d="M66.6319 121.011C82.8596 121.011 96.0147 107.856 96.0147 91.628C96.0147 75.4003 82.8596 62.2451 66.6319 62.2451C50.4042 62.2451 37.249 75.4003 37.249 91.628C37.249 107.856 50.4042 121.011 66.6319 121.011Z" fill="#9747FF"/>
<path d="M63.7202 102.837C63.0592 102.838 62.4157 102.624 61.8869 102.228L61.8541 102.203L54.9487 96.9205C54.6289 96.6753 54.3605 96.3696 54.1589 96.0207C53.9572 95.6717 53.8263 95.2865 53.7735 94.887C53.7207 94.4875 53.7472 94.0815 53.8513 93.6922C53.9554 93.3029 54.1352 92.9379 54.3804 92.6181C54.6256 92.2983 54.9314 92.0299 55.2803 91.8283C55.6292 91.6266 56.0144 91.4957 56.4139 91.4429C56.8134 91.3901 57.2194 91.4166 57.6087 91.5207C57.998 91.6248 58.363 91.8046 58.6828 92.0498L63.1555 95.4797L73.7249 81.6909C73.9699 81.3712 74.2756 81.1029 74.6244 80.9014C74.9731 80.6998 75.3582 80.5689 75.7575 80.5162C76.1569 80.4634 76.5627 80.4898 76.9519 80.5939C77.341 80.698 77.7058 80.8777 78.0255 81.1228L78.0264 81.1235L77.9608 81.2146L78.0282 81.1235C78.6731 81.6192 79.0951 82.3505 79.2014 83.1569C79.3078 83.9633 79.0899 84.779 78.5956 85.425L66.1637 101.636C65.8761 102.01 65.5063 102.312 65.083 102.52C64.6598 102.727 64.1943 102.835 63.7229 102.833L63.7202 102.837Z" fill="white"/>
<path d="M241.561 192.208C241.918 191.63 242.339 191.094 242.815 190.609C243.012 190.406 243.219 190.214 243.432 190.027C244.732 188.87 246.315 188.081 248.021 187.74C249.726 187.398 251.492 187.517 253.136 188.084C254.78 188.652 256.243 189.647 257.376 190.967C258.508 192.287 259.268 193.885 259.578 195.596C261.013 190.289 257.277 185.062 253.522 181.047C249.764 177.033 245.469 172.63 245.491 167.13C245.501 164.069 246.998 161.339 249.259 159.315C249.328 159.253 249.398 159.192 249.469 159.133C252.201 156.791 255.716 155.566 259.312 155.703C265.992 156.061 271.825 160.55 275.876 165.876C282.396 174.445 285.253 186.473 280.688 196.228C276.673 204.807 268.111 209.901 259.371 213.997C258.151 214.569 256.933 215.124 255.718 215.661C255.71 215.663 255.701 215.669 255.693 215.671C255.634 215.697 255.576 215.723 255.521 215.749C255.27 215.86 255.019 215.971 254.771 216.08L254.886 216.155L255.245 216.388C255.12 216.312 254.997 216.239 254.873 216.164C254.836 216.141 254.796 216.119 254.759 216.096C250.467 213.521 246.115 210.797 243.15 206.776C240.075 202.601 238.838 196.621 241.561 192.208Z" fill="#F1F1F1"/>
<path d="M270.198 182.513C271.148 184.675 271.778 186.964 272.068 189.308C272.296 191.398 272.211 193.511 271.814 195.575C270.962 199.818 269.103 203.795 266.394 207.17C264.35 209.732 261.991 212.026 259.372 213.997C258.151 214.569 256.933 215.123 255.718 215.661C255.71 215.663 255.701 215.669 255.693 215.671C255.635 215.697 255.576 215.722 255.521 215.749C255.27 215.859 255.019 215.97 254.771 216.079L254.886 216.155L255.245 216.387C255.121 216.312 254.997 216.239 254.873 216.163C254.836 216.14 254.797 216.119 254.76 216.096C255.704 212.792 255.843 209.31 255.165 205.941C254.486 202.572 253.01 199.415 250.86 196.734C248.699 194.087 245.942 191.988 242.815 190.609C243.012 190.405 243.219 190.213 243.433 190.026C244.637 190.579 245.79 191.238 246.878 191.994C250.771 194.684 253.694 198.557 255.215 203.038C256.572 207.103 256.742 211.471 255.704 215.629C255.919 215.489 256.135 215.344 256.346 215.2C260.344 212.504 264.029 209.265 266.805 205.294C269.199 201.938 270.731 198.044 271.266 193.956C271.798 189.491 270.681 185.1 268.688 181.115C266.486 176.852 263.712 172.911 260.442 169.4C257.159 165.792 253.446 162.599 249.386 159.893C249.295 159.831 249.23 159.737 249.207 159.629C249.183 159.521 249.202 159.409 249.259 159.314C249.302 159.228 249.378 159.163 249.469 159.132C249.516 159.121 249.564 159.119 249.611 159.129C249.658 159.138 249.702 159.158 249.741 159.187C250.242 159.522 250.739 159.859 251.229 160.207C255.317 163.101 259.03 166.492 262.282 170.303C265.424 173.975 268.284 178.055 270.198 182.513Z" fill="white"/>
<path d="M182.687 14.3757C186.133 14.3757 188.927 11.5819 188.927 8.13562C188.927 4.6893 186.133 1.89551 182.687 1.89551C179.241 1.89551 176.447 4.6893 176.447 8.13562C176.447 11.5819 179.241 14.3757 182.687 14.3757Z" fill="#F1F1F1"/>
<path d="M260.279 97.8829C262.38 97.8829 264.084 96.1796 264.084 94.0784C264.084 91.9772 262.38 90.2739 260.279 90.2739C258.178 90.2739 256.475 91.9772 256.475 94.0784C256.475 96.1796 258.178 97.8829 260.279 97.8829Z" fill="#F1F1F1"/>
<path d="M148.936 108.321C151.037 108.321 152.74 106.618 152.74 104.517C152.74 102.416 151.037 100.712 148.936 100.712C146.835 100.712 145.131 102.416 145.131 104.517C145.131 106.618 146.835 108.321 148.936 108.321Z" fill="#F1F1F1"/>
<path d="M151.084 216.808H283.652C283.745 216.808 283.833 216.771 283.898 216.706C283.964 216.641 284 216.552 284 216.46C284 216.367 283.964 216.279 283.898 216.214C283.833 216.148 283.745 216.112 283.652 216.112H151.084C150.992 216.112 150.903 216.148 150.838 216.214C150.773 216.279 150.736 216.367 150.736 216.46C150.736 216.552 150.773 216.641 150.838 216.706C150.903 216.771 150.992 216.808 151.084 216.808Z" fill="#CBCBCB"/>
<path d="M269.022 34.3561C269.196 33.1202 268.911 31.8634 268.22 30.8239C267.53 29.7843 266.482 29.0342 265.275 28.7157C264.068 28.3972 262.786 28.5324 261.673 29.0957C260.559 29.6591 259.691 30.6113 259.232 31.7722L248.475 44.1049L251.631 52.9208L262.45 38.5104C263.156 38.7366 263.903 38.8052 264.638 38.7114C265.373 38.6176 266.079 38.3638 266.706 37.9677C267.333 37.5716 267.865 37.043 268.265 36.419C268.665 35.795 268.924 35.0908 269.022 34.3561Z" fill="#FFB7B7"/>
<path d="M224.431 82.3431L260.14 44.2328L255.324 36.5752L210.535 74.4541L224.431 82.3431Z" fill="#3F3D56"/>
<path d="M216.461 59.1875C223.379 59.1875 228.987 53.5793 228.987 46.6614C228.987 39.7434 223.379 34.1353 216.461 34.1353C209.543 34.1353 203.935 39.7434 203.935 46.6614C203.935 53.5793 209.543 59.1875 216.461 59.1875Z" fill="#2F2E41"/>
<path d="M217.468 39.5854C220.163 36.8521 223.425 34.7428 227.023 33.4061C229.333 32.5504 231.848 32.0217 234.263 32.5077C236.678 32.9936 238.961 34.6643 239.635 37.0337C240.186 38.9712 239.617 41.0573 238.762 42.8811C237.907 44.705 236.766 46.3962 236.074 48.2882C235.369 50.2186 235.157 52.2946 235.457 54.3278C235.757 56.3611 236.561 58.2871 237.794 59.931C239.028 61.5749 240.653 62.8848 242.521 63.7416C244.389 64.5984 246.442 64.975 248.492 64.8373C246.119 65.1555 243.932 66.2705 241.613 66.8641C239.294 67.4576 236.556 67.4174 234.833 65.7558C233.009 63.9978 232.973 61.1395 233.061 58.6081C233.192 54.8451 233.323 51.082 233.454 47.319C233.521 45.3999 233.578 43.4193 232.886 41.6281C232.194 39.8369 230.549 38.2684 228.629 38.2847C227.174 38.2971 225.886 39.1787 224.719 40.0481C223.551 40.9176 222.316 41.8452 220.866 41.9745C219.417 42.1038 217.762 41.0311 217.87 39.5798L217.468 39.5854Z" fill="#2F2E41"/>
<path d="M168.886 130.768C167.683 131.102 166.4 130.984 165.279 130.435C164.158 129.886 163.277 128.945 162.804 127.79C162.33 126.635 162.297 125.347 162.71 124.169C163.123 122.991 163.954 122.006 165.045 121.4L175.866 109.123L185.019 111.1L172.146 123.709C172.462 124.38 172.628 125.111 172.631 125.853C172.634 126.594 172.474 127.327 172.164 128C171.853 128.673 171.398 129.27 170.832 129.748C170.266 130.226 169.601 130.575 168.886 130.768Z" fill="#FFB7B7"/>
<path d="M204.488 86.8163L177.517 120.672L169.295 116.897L200.997 67.5425L204.488 86.8163Z" fill="#3F3D56"/>
<path d="M182.968 189.045L176.54 188.944L177.313 210.853H182.966L182.968 189.045Z" fill="#FFB7B7"/>
<path d="M184.409 209.007L173.274 209.007H173.274C171.392 209.007 169.587 209.755 168.256 211.085C166.926 212.416 166.178 214.221 166.178 216.103V216.333L184.408 216.334L184.409 209.007Z" fill="#2F2E41"/>
<path d="M225.527 183.235L218.505 187.743L232.551 204.641L237.309 201.586L225.527 183.235Z" fill="#FFB7B7"/>
<path d="M237.525 199.253L228.155 205.269L228.155 205.269C226.572 206.286 225.457 207.89 225.056 209.729C224.655 211.568 225.001 213.49 226.018 215.074L226.142 215.268L241.483 205.419L237.525 199.253Z" fill="#2F2E41"/>
<path d="M228.029 116.335C228.029 116.335 212.427 64.5157 207.413 63.8155C202.399 63.1152 194.32 77.1116 194.32 77.1116C183.846 90.4756 173.045 133.765 173.045 133.765C173.045 133.765 191.05 134.891 204.212 141.894C217.374 148.897 232.907 141.539 232.907 141.539L228.029 116.335Z" fill="#3F3D56"/>
<path opacity="0.1" d="M228.029 116.334C228.029 116.334 212.427 64.5155 207.413 63.8152C202.399 63.115 196.372 77.2534 196.372 77.2534C191.153 98.8261 173.045 133.764 173.045 133.764C173.045 133.764 191.05 134.891 204.212 141.894C217.374 148.896 232.907 141.539 232.907 141.539L228.029 116.334Z" fill="black"/>
<path d="M215.229 100.831V126.869L218.293 164.588L233.603 193.12L226.296 198.339L205.419 171.199L197.162 144.251L184.194 203.906L174.452 203.21L181.218 120.499L194.057 97.2183L215.229 100.831Z" fill="#2F2E41"/>
<path d="M199.498 75.6452C194.627 80.5164 199.15 85.7356 199.15 85.7356L193.583 98.2617L215.504 104.177L223.164 69.9464L217.945 64.3792C207.507 64.0313 207.501 63.8149 207.501 63.8149C205.672 65.6047 199.498 75.6452 199.498 75.6452Z" fill="#9747FF"/>
<path d="M224.047 66.4005C223.052 65.6656 221.92 65.1356 220.718 64.8411C219.516 64.5465 218.268 64.4934 217.045 64.6848C215.823 64.8761 214.65 65.3082 213.596 65.9559C212.542 66.6035 211.626 67.454 210.903 68.458C205.392 76.131 200.297 88.521 207.317 103.974C218.59 128.786 228.401 141.487 232.389 141.486C232.563 141.487 232.736 141.46 232.901 141.405C235.356 140.573 238.905 136.419 239.548 132.758C239.778 131.448 239.723 129.623 238.156 128.37C233.655 124.77 225.575 113.56 223.055 98.8067C221.662 90.6544 224.363 83.2284 226.875 78.4344C227.935 76.4508 228.246 74.1514 227.749 71.9575C227.252 69.7637 225.981 67.8225 224.168 66.4897L224.047 66.4005Z" fill="#3F3D56"/>
<path d="M217.105 57.9569C221.574 55.5142 223.216 49.9118 220.773 45.4434C218.33 40.975 212.728 39.3328 208.26 41.7755C203.791 44.2181 202.149 49.8206 204.592 54.2889C207.034 58.7573 212.637 60.3995 217.105 57.9569Z" fill="#FFB7B7"/>
<path d="M199.715 49.169H213.029L213.166 47.2574L213.848 49.169H215.899L216.169 45.3804L217.522 49.169H221.489V48.9813C221.486 46.3437 220.437 43.8149 218.572 41.9499C216.707 40.0848 214.178 39.0357 211.541 39.0327H209.663C207.026 39.0357 204.497 40.0848 202.632 41.9499C200.767 43.8149 199.718 46.3437 199.715 48.9813V49.169Z" fill="#2F2E41"/>
<path d="M219.478 56.0402L225.159 54.1965V40.3984H214.427L214.693 40.6637C218.39 44.3558 222.501 57.4546 219.478 56.0402Z" fill="#2F2E41"/>
</g>
<defs>
<clipPath id="clip0_1647_5808">
<rect width="284" height="216.075" fill="white" transform="translate(0 0.732422)"/>
</clipPath>
</defs>
</svg>
