<svg width="265" height="254" viewBox="0 0 265 254" fill="none" xmlns="http://www.w3.org/2000/svg">
<g clip-path="url(#clip0_1478_6941)">
<path d="M238.244 245.42C239.244 245.483 239.796 244.241 239.04 243.517L238.965 243.218C238.974 243.194 238.984 243.17 238.994 243.146C240.005 240.735 243.432 240.752 244.434 243.166C245.324 245.309 246.457 247.456 246.736 249.721C246.861 250.721 246.804 251.74 246.582 252.722C248.667 248.168 249.764 243.195 249.764 238.195C249.764 236.938 249.695 235.682 249.555 234.428C249.439 233.403 249.28 232.384 249.073 231.375C247.958 225.918 245.542 220.72 242.057 216.379C240.381 215.463 238.984 214.032 238.141 212.316C237.837 211.697 237.6 211.031 237.487 210.353C237.678 210.378 238.206 207.474 238.062 207.296C238.328 206.893 238.804 206.693 239.094 206.299C240.537 204.343 242.525 204.684 243.563 207.343C245.781 208.462 245.802 210.318 244.441 212.103C243.576 213.239 243.457 214.775 242.697 215.991C242.776 216.091 242.857 216.188 242.935 216.288C244.368 218.126 245.607 220.101 246.652 222.177C246.357 219.87 246.793 217.092 247.536 215.3C248.382 213.26 249.967 211.541 251.364 209.777C253.041 207.658 256.48 208.582 256.776 211.269C256.778 211.295 256.781 211.321 256.784 211.347C256.577 211.464 256.373 211.588 256.175 211.719C255.043 212.468 255.434 214.223 256.775 214.43L256.806 214.435C256.731 215.182 256.603 215.922 256.415 216.651C258.206 223.578 254.339 226.101 248.817 226.215C248.695 226.277 248.576 226.34 248.455 226.399C249.014 227.974 249.461 229.59 249.792 231.228C250.089 232.675 250.295 234.138 250.411 235.607C250.555 237.46 250.542 239.323 250.386 241.173L250.395 241.107C250.792 239.07 251.899 237.166 253.505 235.847C255.899 233.881 259.28 233.157 261.862 231.577C263.104 230.817 264.697 231.8 264.48 233.24L264.469 233.309C264.085 233.466 263.71 233.647 263.347 233.85C263.14 233.967 262.937 234.091 262.738 234.223C261.606 234.971 261.998 236.726 263.339 236.933L263.369 236.938C263.391 236.941 263.41 236.944 263.432 236.947C262.772 238.513 261.853 239.967 260.703 241.22C259.583 247.267 254.773 247.841 249.627 246.08H249.623C249.061 248.53 248.239 250.925 247.182 253.206H238.462C238.431 253.109 238.403 253.009 238.375 252.912C239.181 252.962 239.994 252.915 240.788 252.769C240.141 251.975 239.494 251.175 238.847 250.381C238.831 250.365 238.819 250.349 238.806 250.334C238.478 249.928 238.147 249.524 237.819 249.118L237.818 249.118C237.798 247.87 237.948 246.627 238.244 245.42Z" fill="#F2F2F2"/>
<path d="M77.8052 252.748C77.8052 253.067 78.0617 253.324 78.381 253.324H263.856C264.176 253.324 264.432 253.067 264.432 252.748C264.432 252.428 264.176 252.172 263.856 252.172H78.3811C78.0617 252.172 77.8052 252.428 77.8052 252.748Z" fill="#CCCCCC"/>
<path d="M105.949 253.078H20.5764C10.1668 253.078 1.69775 244.609 1.69775 234.199V50.7278C1.69775 40.3181 10.1668 31.8491 20.5764 31.8491H105.949C116.359 31.8491 124.828 40.3181 124.828 50.7278V234.199C124.828 244.609 116.359 253.078 105.949 253.078Z" fill="#3F3D56"/>
<path d="M124.828 99.3359C124.387 99.3359 124.029 99.6941 124.029 100.135V125.692C124.029 126.132 124.387 126.49 124.828 126.49C125.268 126.49 125.627 126.132 125.627 125.692V100.135C125.627 99.6941 125.268 99.3359 124.828 99.3359Z" fill="#3F3D56"/>
<path d="M123.031 50.7279V234.196C123.031 243.257 115.979 250.669 107.062 251.244H107.058C106.926 251.252 106.794 251.26 106.658 251.264C106.423 251.276 106.187 251.28 105.948 251.28C105.948 251.28 105.069 251.216 103.464 251.096C101.842 250.976 99.4824 250.796 96.5393 250.561C95.6568 250.493 94.7264 250.417 93.744 250.337C91.7873 250.177 89.6389 250.002 87.3348 249.802C86.4163 249.726 85.4659 249.642 84.4956 249.558C79.5359 249.131 73.9812 248.632 68.123 248.065C67.1327 247.973 66.1343 247.877 65.128 247.777C64.8645 247.749 64.5969 247.726 64.3294 247.698C60.1524 247.286 3.49512 236.337 3.49512 234.196V50.7279C3.49512 41.2917 11.1423 33.6445 20.5785 33.6445H30.7774C32.4066 33.6445 33.7164 34.9144 33.8562 36.5397C33.8682 36.6475 33.8802 36.7553 33.9001 36.8631C34.1956 38.4964 35.6931 39.6345 37.3543 39.6345H89.1717C90.8329 39.6345 92.3304 38.4964 92.6259 36.8631C92.6459 36.7553 92.6579 36.6475 92.6699 36.5397C92.8096 34.9144 94.1194 33.6445 95.7487 33.6445H105.948C115.384 33.6445 123.031 41.2917 123.031 50.7279Z" fill="white"/>
<path d="M1.29866 80.168C0.858185 80.168 0.5 80.5262 0.5 80.9666V87.3559C0.5 87.7964 0.85819 88.1546 1.29866 88.1546C1.73913 88.1546 2.09732 87.7964 2.09732 87.3559V80.9666C2.09732 80.5262 1.73913 80.168 1.29866 80.168Z" fill="#3F3D56"/>
<path d="M1.29866 99.3359C0.858185 99.3359 0.5 99.6941 0.5 100.135V112.514C0.5 112.954 0.85819 113.313 1.29866 113.313C1.73913 113.313 2.09732 112.954 2.09732 112.514V100.135C2.09732 99.6941 1.73913 99.3359 1.29866 99.3359Z" fill="#3F3D56"/>
<path d="M1.29866 116.907C0.858185 116.907 0.5 117.265 0.5 117.705V130.085C0.5 130.525 0.85819 130.883 1.29866 130.883C1.73913 130.883 2.09732 130.525 2.09732 130.085V117.705C2.09732 117.265 1.73913 116.907 1.29866 116.907Z" fill="#3F3D56"/>
<path d="M30.4995 36.4414H15.2258C15.1429 36.4414 15.0757 36.5086 15.0757 36.5915V38.2879C15.0757 38.3709 15.1429 38.4381 15.2258 38.4381H30.4995C30.5824 38.4381 30.6496 38.3709 30.6496 38.2879V36.5915C30.6496 36.5086 30.5824 36.4414 30.4995 36.4414Z" fill="#E6E6E6"/>
<path d="M98.2721 38.4383C99.1543 38.4383 99.8694 37.7232 99.8694 36.841C99.8694 35.9588 99.1543 35.2437 98.2721 35.2437C97.3899 35.2437 96.6748 35.9588 96.6748 36.841C96.6748 37.7232 97.3899 38.4383 98.2721 38.4383Z" fill="#E6E6E6"/>
<path d="M102.665 38.4383C103.547 38.4383 104.262 37.7232 104.262 36.841C104.262 35.9588 103.547 35.2437 102.665 35.2437C101.783 35.2437 101.067 35.9588 101.067 36.841C101.067 37.7232 101.783 38.4383 102.665 38.4383Z" fill="#E6E6E6"/>
<path d="M107.058 38.4383C107.94 38.4383 108.655 37.7232 108.655 36.841C108.655 35.9588 107.94 35.2437 107.058 35.2437C106.176 35.2437 105.46 35.9588 105.46 36.841C105.46 37.7232 106.176 38.4383 107.058 38.4383Z" fill="#E6E6E6"/>
<path d="M96.9365 144.453H29.19C28.1227 144.453 27.2544 143.584 27.2544 142.517C27.2544 141.45 28.1227 140.582 29.19 140.582H96.9365C98.0038 140.582 98.8721 141.45 98.8721 142.517C98.8721 143.584 98.0038 144.453 96.9365 144.453Z" fill="#E6E6E6"/>
<path d="M63.3062 219.458C78.8068 219.458 91.3726 206.892 91.3726 191.392C91.3726 175.891 78.8068 163.325 63.3062 163.325C47.8055 163.325 35.2397 175.891 35.2397 191.392C35.2397 206.892 47.8055 219.458 63.3062 219.458Z" fill="#9747FF"/>
<path d="M67.7667 182.228C65.3981 182.325 62.7203 182.488 60.9696 184.305C59.4486 185.884 59.1153 188.227 60.6577 189.913C62.2041 191.603 64.6085 191.832 66.3911 193.15C68.4843 194.699 68.1777 197.762 66.1521 199.229C63.7635 200.959 60.6796 200.153 58.4959 198.506C57.9364 198.084 57.3932 199.029 57.9464 199.446C59.9028 200.921 62.4557 201.743 64.8747 201.037C67.0578 200.4 68.7501 198.62 68.9222 196.304C69.0044 195.199 68.6902 194.078 68.003 193.205C67.2776 192.284 66.2328 191.718 65.1767 191.256C63.3585 190.463 60.2279 189.435 60.7565 186.851C61.3973 183.718 65.2103 183.421 67.7667 183.316C68.4649 183.288 68.4685 182.199 67.7667 182.228Z" fill="white"/>
<path d="M63.3725 180.746L63.2681 204.647C63.265 205.348 64.3538 205.349 64.3569 204.647L64.4612 180.746C64.4643 180.045 63.3755 180.044 63.3725 180.746Z" fill="white"/>
<path d="M212.007 0H73.6301C68.554 0 64.4263 4.12768 64.4263 9.20383V104.03C64.4263 109.106 68.554 113.233 73.6301 113.233H212.007C217.083 113.233 221.211 109.106 221.211 104.03V9.20383C221.211 4.12768 217.083 0 212.007 0Z" fill="white"/>
<path d="M142.183 56.3824C150.735 56.3824 157.668 49.4496 157.668 40.8975C157.668 32.3454 150.735 25.4126 142.183 25.4126C133.631 25.4126 126.698 32.3454 126.698 40.8975C126.698 49.4496 133.631 56.3824 142.183 56.3824Z" fill="#9747FF"/>
<path d="M145.12 33.9872C143.203 34.0662 141.045 34.1877 139.595 35.6142C138.394 36.7958 137.974 38.6352 139.078 40.0264C140.24 41.4912 142.172 41.7691 143.689 42.7052C144.632 43.287 145.257 44.1683 145.277 45.301C145.296 46.3614 144.807 47.3521 143.989 48.0168C141.981 49.6474 139.244 48.9724 137.345 47.5463C136.971 47.2657 136.609 47.8956 136.979 48.1731C138.551 49.3541 140.576 50.0401 142.533 49.5319C144.335 49.0642 145.786 47.6471 145.981 45.7536C146.187 43.7578 144.876 42.3989 143.177 41.6193C141.624 40.9067 138.9 40.1475 139.157 37.9337C139.483 35.119 142.929 34.8034 145.12 34.713C145.585 34.6939 145.588 33.9679 145.12 33.9872Z" fill="white"/>
<path d="M141.789 32.6709L141.702 52.5875C141.7 53.0546 142.425 53.0552 142.428 52.5875L142.515 32.6709C142.517 32.2038 141.791 32.2032 141.789 32.6709Z" fill="white"/>
<path d="M212.007 0H73.6301C68.554 0 64.4263 4.12768 64.4263 9.20383V104.03C64.4263 109.106 68.554 113.233 73.6301 113.233H212.007C217.083 113.233 221.211 109.106 221.211 104.03V9.20383C221.211 4.12768 217.083 0 212.007 0ZM220.243 104.03C220.243 108.573 216.551 112.266 212.007 112.266H73.6301C69.0863 112.266 65.3941 108.573 65.3941 104.03V9.20383C65.3941 4.66 69.0863 0.967807 73.6301 0.967807H212.007C216.551 0.967807 220.243 4.65999 220.243 9.20383V104.03Z" fill="#3F3D56"/>
<path d="M126.865 9.36377H113.286C112.604 9.36377 112.047 9.92027 112.047 10.6026C112.047 11.2897 112.604 11.8462 113.286 11.8462H126.865C127.547 11.8462 128.103 11.2897 128.103 10.6026C128.103 9.92027 127.547 9.36377 126.865 9.36377Z" fill="#E6E6E6"/>
<path d="M149.608 9.36377H136.03C135.348 9.36377 134.791 9.92027 134.791 10.6026C134.791 11.2897 135.348 11.8462 136.03 11.8462H149.608C150.29 11.8462 150.847 11.2897 150.847 10.6026C150.847 9.92027 150.29 9.36377 149.608 9.36377Z" fill="#E6E6E6"/>
<path d="M172.351 9.36377H158.773C158.091 9.36377 157.534 9.92027 157.534 10.6026C157.534 11.2897 158.091 11.8462 158.773 11.8462H172.351C173.034 11.8462 173.59 11.2897 173.59 10.6026C173.59 9.92027 173.034 9.36377 172.351 9.36377Z" fill="#E6E6E6"/>
<path d="M194.746 65.0928H90.891C86.5698 65.0928 83.0566 68.6059 83.0566 72.9272V80.0018C83.0566 84.3231 86.5698 87.8362 90.891 87.8362H194.746C199.068 87.8362 202.581 84.3231 202.581 80.0018V72.9272C202.581 68.6059 199.068 65.0928 194.746 65.0928Z" fill="#9747FF"/>
<path d="M35.9117 102.342L31.9292 100.455C33.5626 102.735 34.9701 106.295 35.7237 109.128C36.9995 106.489 39.0562 103.26 41.092 101.331L36.8829 102.414C39.4765 89.703 49.2317 80.5777 60.4027 80.5777V79.6099C48.7343 79.6099 38.5598 89.1174 35.9117 102.342Z" fill="#3F3D56"/>
<path d="M54.2417 121.71H29.0787C28.0114 121.71 27.1431 120.841 27.1431 119.774C27.1431 118.707 28.0114 117.838 29.0787 117.838H54.2417C55.309 117.838 56.1773 118.707 56.1773 119.774C56.1773 120.841 55.309 121.71 54.2417 121.71Z" fill="#E6E6E6"/>
<path d="M221.634 115.405L221.38 135.167L216.463 152.784L212.532 151.318L214.277 135.17L214.048 113.318L221.634 115.405Z" fill="#FFB6B6"/>
<path d="M216.446 155.625C216.907 153.092 216.062 150.816 214.558 150.542C213.054 150.268 211.46 152.1 210.999 154.633C210.538 157.166 211.383 159.442 212.887 159.716C214.391 159.989 215.985 158.158 216.446 155.625Z" fill="#FFB6B6"/>
<path d="M215.667 91.8745C215.667 91.8745 224.09 91.9905 224.083 96.4651C224.079 98.9914 223.537 121.93 222.027 135.864C220.862 146.61 218.639 149.414 218.639 149.414L213.316 137.316L215.667 91.8745Z" fill="#E6E6E6"/>
<path d="M215.45 132.25H187.003C189.387 126.929 190.853 121.862 188.562 117.831L215.45 116.272C214.107 121.714 213.943 127.054 215.45 132.25Z" fill="#FFB6B6"/>
<path d="M211.943 85.0973L200.642 84.3179L195.966 90.1633L193.595 90.5943C190.041 91.2404 187.511 94.4117 187.67 98.0202L188.592 118.979L215.604 120.949L222.075 93.6558L214.281 90.553L211.943 85.0973Z" fill="#E6E6E6"/>
<path d="M143.025 91.4199C143.826 92.1412 144.399 92.9838 144.701 93.801L152.773 100.19L149.621 103.942L141.772 97.0571C140.927 96.8426 140.029 96.3622 139.227 95.6409C137.396 93.9931 136.761 91.7124 137.809 90.5468C138.858 89.3812 141.193 89.7721 143.025 91.4199Z" fill="#FFB6B6"/>
<path d="M200.095 96.7984L169.165 117.683L146.995 102.255L150.323 96.2252L167.773 106.366L183.865 94.01C189.595 88.6275 196.777 89.6708 200.095 96.7984Z" fill="#E6E6E6"/>
<path d="M205.622 82.5675C210.253 82.5675 214.006 78.8138 214.006 74.1834C214.006 69.553 210.253 65.7993 205.622 65.7993C200.992 65.7993 197.238 69.553 197.238 74.1834C197.238 78.8138 200.992 82.5675 205.622 82.5675Z" fill="#FFB6B6"/>
<path d="M217.018 72.1237V73.7496L207.563 71.0882L200.474 72.5737C200.391 71.4946 200.072 70.4349 199.54 69.4961C199.91 71.0018 199.951 72.1667 199.559 72.7673L198.606 72.9657C198.451 72.5447 198.151 72.177 197.759 71.9543C197.72 71.9302 197.672 71.9108 197.628 71.9253C197.56 71.9495 197.556 72.0366 197.556 72.1044C197.565 72.4624 197.575 72.8205 197.589 73.1786L194.851 73.7496V72.1237C192.223 66.2114 199.149 61.0954 205.937 61.0423C209 61.0184 211.768 62.2811 213.776 64.2845C215.779 66.2927 217.018 69.0606 217.018 72.1237Z" fill="#2F2E41"/>
<path d="M222.338 91.1887L221.624 91.1296C221.674 90.8961 221.725 90.6655 221.772 90.432C222.167 88.4724 221.296 85.9779 221.232 84.0951C220.896 86.0842 221.471 88.5315 220.876 90.4202C220.81 90.6301 218.226 91.9843 218.155 92.1912C215.296 91.1455 212.318 87.8041 208.946 89.7557C206.952 90.9099 204.676 90.404 202.412 89.8755C201.851 89.7447 201.774 86.977 201.219 86.8682C200.226 86.6735 198.767 89.1895 197.832 89.2878L201.703 74.2867C201.703 66.1262 200.947 57.5643 211.284 60.4499C213.884 61.1756 216.457 61.7444 218.376 63.8902C220.295 66.039 221.661 69.042 222.145 72.4616C222.437 74.5247 224.259 81.5296 222.338 91.1887Z" fill="#2F2E41"/>
<path d="M215.662 242.039L211.047 242.148L208.475 221.416L215.285 221.254L215.662 242.039Z" fill="#FFB7B7"/>
<path d="M199.83 251.667C199.83 252.446 200.383 253.078 201.065 253.078H210.225C210.225 253.078 211.127 249.455 214.802 247.896L215.056 253.078H219.781L219.208 244.745C219.208 244.745 220.472 240.286 217.847 238.007C215.222 235.728 217.348 236.045 217.348 236.045L216.316 230.887L209.175 231.727L209.123 239.824L205.657 247.86L200.575 250.371C200.122 250.595 199.83 251.104 199.83 251.667Z" fill="#2F2E41"/>
<path d="M201.622 238.661L197.186 239.937L189.437 220.536L195.983 218.652L201.622 238.661Z" fill="#FFB7B7"/>
<path d="M188.751 251.991C188.949 252.745 189.644 253.216 190.304 253.043L199.164 250.718C199.164 250.718 199.117 246.985 202.276 244.544L203.837 249.493L208.407 248.294L205.739 240.378C205.739 240.378 205.83 235.744 202.712 234.206C199.595 232.668 201.732 232.435 201.732 232.435L199.424 227.708L192.731 230.332L194.734 238.177L193.422 246.83L189.143 250.549C188.762 250.88 188.608 251.446 188.751 251.991Z" fill="#2F2E41"/>
<path d="M212.832 131.025L215.736 131.993C220.275 140.377 222.2 151.511 221.945 164.936L216.787 225.236H208.35L202.175 158.06L191.287 183.274L199.253 225.236L191.287 226.049L175.242 182.414L186.416 131.7L212.832 131.025Z" fill="#2F2E41"/>
</g>
<defs>
<clipPath id="clip0_1478_6941">
<rect width="264" height="253.324" fill="white" transform="translate(0.5)"/>
</clipPath>
</defs>
</svg>
