<svg width="264" height="227" viewBox="0 0 264 227" fill="none" xmlns="http://www.w3.org/2000/svg">
<g clip-path="url(#clip0_1480_8010)">
<path d="M19.8241 207.894C21.3454 208.428 22.9787 208.562 24.5667 208.283C26.1548 208.003 27.644 207.319 28.8909 206.296C32.0666 203.631 33.0624 199.241 33.8723 195.175L36.2686 183.148L31.2519 186.602C27.644 189.086 23.955 191.65 21.4571 195.248C18.9592 198.846 17.8695 203.759 19.8759 207.652" fill="#E6E6E6"/>
<path d="M20.5987 223.292C19.9672 218.692 19.3176 214.032 19.7615 209.382C20.155 205.253 21.4148 201.22 23.9797 197.913C25.3411 196.161 26.9977 194.659 28.875 193.477C29.3644 193.168 29.815 193.943 29.3276 194.251C26.0793 196.304 23.5668 199.335 22.1524 202.908C20.5903 206.881 20.3395 211.212 20.6085 215.433C20.7712 217.985 21.1168 220.52 21.4639 223.053C21.4913 223.167 21.4742 223.288 21.416 223.391C21.3578 223.493 21.263 223.569 21.1506 223.605C21.0359 223.635 20.9137 223.62 20.8104 223.561C20.7071 223.503 20.6312 223.406 20.599 223.291L20.5987 223.292Z" fill="#F2F2F2"/>
<path d="M25.1436 215.91C25.7959 216.902 26.6927 217.709 27.7475 218.254C28.8023 218.799 29.9796 219.062 31.166 219.02C34.2154 218.875 36.7567 216.748 39.0441 214.727L45.8112 208.752L41.3327 208.538C38.1119 208.384 34.808 208.239 31.7403 209.233C28.6726 210.228 25.8434 212.617 25.2826 215.792" fill="#E6E6E6"/>
<path d="M18.8139 225.936C21.8538 220.557 25.3795 214.579 31.68 212.669C33.4316 212.139 35.2684 211.95 37.0913 212.11C37.6659 212.16 37.5224 213.045 36.949 212.996C33.8933 212.742 30.8435 213.549 28.313 215.28C25.8779 216.938 23.9818 219.242 22.3773 221.686C21.3943 223.183 20.5138 224.743 19.6333 226.301C19.352 226.799 18.5293 226.44 18.8139 225.936Z" fill="#F2F2F2"/>
<path d="M262.052 159.536H94.4577C93.9413 159.535 93.4462 159.33 93.081 158.965C92.7159 158.599 92.5104 158.104 92.5098 157.588V1.94793C92.5104 1.43152 92.7159 0.936443 93.0811 0.571281C93.4462 0.20612 93.9413 0.000675085 94.4577 0H262.052C262.568 0.000675085 263.064 0.20612 263.429 0.571281C263.794 0.936443 263.999 1.43152 264 1.94793V157.588C263.999 158.104 263.794 158.599 263.429 158.964C263.064 159.33 262.569 159.535 262.052 159.536Z" fill="white"/>
<path d="M262.052 159.536H94.4577C93.9413 159.535 93.4462 159.33 93.081 158.965C92.7159 158.599 92.5104 158.104 92.5098 157.588V1.94793C92.5104 1.43152 92.7159 0.936443 93.0811 0.571281C93.4462 0.20612 93.9413 0.000675085 94.4577 0H262.052C262.568 0.000675085 263.064 0.20612 263.429 0.571281C263.794 0.936443 263.999 1.43152 264 1.94793V157.588C263.999 158.104 263.794 158.599 263.429 158.964C263.064 159.33 262.569 159.535 262.052 159.536ZM94.4577 0.777638C94.1482 0.77831 93.8516 0.901558 93.6327 1.1204C93.4139 1.33925 93.2906 1.63588 93.29 1.94538V157.588C93.2906 157.897 93.4139 158.194 93.6327 158.413C93.8516 158.631 94.1482 158.755 94.4577 158.755H262.052C262.362 158.755 262.658 158.632 262.877 158.413C263.096 158.194 263.219 157.897 263.22 157.588V1.94793C263.219 1.63844 263.096 1.34181 262.877 1.12296C262.658 0.904114 262.362 0.780866 262.052 0.780194L94.4577 0.777638Z" fill="#CACACA"/>
<path d="M173.649 40.4434C173.299 40.444 172.963 40.5836 172.716 40.8315C172.468 41.0794 172.329 41.4155 172.329 41.7658C172.329 42.1162 172.468 42.4522 172.716 42.7001C172.963 42.9481 173.299 43.0877 173.649 43.0883H246.215C246.566 43.0877 246.901 42.9481 247.149 42.7001C247.396 42.4522 247.535 42.1162 247.535 41.7658C247.535 41.4155 247.396 41.0794 247.149 40.8315C246.901 40.5836 246.566 40.444 246.215 40.4434H173.649Z" fill="#E4E4E4"/>
<path d="M173.649 48.3789C173.299 48.3798 172.963 48.5195 172.716 48.7674C172.468 49.0153 172.33 49.3512 172.33 49.7014C172.33 50.0516 172.468 50.3874 172.716 50.6354C172.963 50.8833 173.299 51.023 173.649 51.0238H210.695C211.045 51.023 211.381 50.8833 211.628 50.6354C211.876 50.3874 212.015 50.0516 212.015 49.7014C212.015 49.3512 211.876 49.0153 211.628 48.7674C211.381 48.5195 211.045 48.3798 210.695 48.3789H173.649Z" fill="#E4E4E4"/>
<path d="M110.224 91.0532C109.874 91.0541 109.538 91.1938 109.291 91.4417C109.044 91.6896 108.905 92.0255 108.905 92.3757C108.905 92.7259 109.044 93.0618 109.291 93.3097C109.538 93.5576 109.874 93.6973 110.224 93.6981H246.286C246.636 93.6973 246.971 93.5576 247.219 93.3097C247.466 93.0618 247.605 92.7259 247.605 92.3757C247.605 92.0255 247.466 91.6896 247.219 91.4417C246.971 91.1938 246.636 91.0541 246.286 91.0532H110.224Z" fill="#E4E4E4"/>
<path d="M110.224 98.9888C109.874 98.9896 109.538 99.1293 109.291 99.3772C109.044 99.6252 108.905 99.961 108.905 100.311C108.905 100.661 109.044 100.997 109.291 101.245C109.538 101.493 109.874 101.633 110.224 101.634H210.766C211.116 101.633 211.452 101.493 211.699 101.245C211.946 100.997 212.085 100.661 212.085 100.311C212.085 99.961 211.946 99.6252 211.699 99.3772C211.452 99.1293 211.116 98.9896 210.766 98.9888H110.224Z" fill="#E4E4E4"/>
<path d="M110.224 106.745C109.874 106.745 109.538 106.885 109.291 107.133C109.044 107.381 108.905 107.717 108.905 108.067C108.905 108.417 109.044 108.753 109.291 109.001C109.538 109.249 109.874 109.389 110.224 109.39H246.286C246.636 109.389 246.971 109.249 247.219 109.001C247.466 108.753 247.605 108.417 247.605 108.067C247.605 107.717 247.466 107.381 247.219 107.133C246.971 106.885 246.636 106.745 246.286 106.745H110.224Z" fill="#E4E4E4"/>
<path d="M110.224 114.68C109.874 114.681 109.538 114.821 109.291 115.069C109.044 115.317 108.905 115.652 108.905 116.003C108.905 116.353 109.044 116.689 109.291 116.937C109.538 117.185 109.874 117.324 110.224 117.325H210.766C211.116 117.324 211.452 117.185 211.699 116.937C211.946 116.689 212.085 116.353 212.085 116.003C212.085 115.652 211.946 115.317 211.699 115.069C211.452 114.821 211.116 114.681 210.766 114.68H110.224Z" fill="#E4E4E4"/>
<path d="M110.224 122.643C109.874 122.644 109.538 122.784 109.291 123.032C109.044 123.279 108.905 123.615 108.905 123.966C108.905 124.316 109.044 124.652 109.291 124.9C109.538 125.147 109.874 125.287 110.224 125.288H246.286C246.636 125.287 246.971 125.147 247.219 124.9C247.466 124.652 247.605 124.316 247.605 123.966C247.605 123.615 247.466 123.279 247.219 123.032C246.971 122.784 246.636 122.644 246.286 122.643H110.224Z" fill="#E4E4E4"/>
<path d="M110.224 130.578C109.874 130.579 109.538 130.719 109.291 130.967C109.044 131.215 108.905 131.55 108.905 131.901C108.905 132.251 109.044 132.587 109.291 132.835C109.538 133.082 109.874 133.222 110.224 133.223H210.766C211.116 133.222 211.452 133.082 211.699 132.835C211.946 132.587 212.085 132.251 212.085 131.901C212.085 131.55 211.946 131.215 211.699 130.967C211.452 130.719 211.116 130.579 210.766 130.578H110.224Z" fill="#E4E4E4"/>
<path d="M131.775 64.7336C128.017 64.7336 124.343 63.6193 121.219 61.5316C118.094 59.4439 115.659 56.4765 114.221 53.0047C112.783 49.5328 112.406 45.7126 113.139 42.0269C113.873 38.3412 115.682 34.9557 118.339 32.2985C120.997 29.6412 124.382 27.8316 128.068 27.0985C131.753 26.3654 135.574 26.7416 139.046 28.1797C142.517 29.6178 145.485 32.053 147.573 35.1776C149.66 38.3022 150.775 41.9756 150.775 45.7335C150.769 50.7709 148.765 55.6003 145.203 59.1622C141.641 62.7242 136.812 64.7278 131.775 64.7336Z" fill="#9747FF"/>
<path d="M74.0997 136.574C74.0668 135.881 73.8823 135.203 73.5591 134.588C73.2359 133.974 72.782 133.438 72.2292 133.018C71.6764 132.598 71.0382 132.304 70.3596 132.157C69.681 132.011 68.9785 132.014 68.3015 132.169L62.0213 123.318L55.7119 125.823L64.7564 138.197C65.0908 139.317 65.8243 140.275 66.8182 140.891C67.812 141.506 68.997 141.736 70.1487 141.536C71.3004 141.336 72.3387 140.72 73.0669 139.806C73.795 138.891 74.1625 137.742 74.0997 136.574Z" fill="#A0616A"/>
<path d="M61.8596 135.919L42.8564 111.266L49.9767 88.8881C50.4985 83.262 54.0191 81.691 54.1689 81.6268L54.3974 81.5288L60.5934 98.0519L56.0441 110.183L67.2102 128.963L61.8596 135.919Z" fill="#3F3D56"/>
<path d="M127.854 59.9224C127.165 60.0088 126.504 60.2452 125.916 60.6149C125.328 60.9846 124.829 61.4787 124.453 62.0623C124.077 62.6459 123.833 63.3049 123.74 63.9928C123.646 64.6807 123.704 65.3808 123.91 66.0438L115.571 72.9896L118.556 79.0864L130.194 69.1122C131.285 68.6923 132.184 67.8868 132.721 66.8484C133.257 65.8099 133.394 64.6107 133.106 63.4779C132.818 62.3452 132.124 61.3576 131.156 60.7023C130.188 60.047 129.013 59.7695 127.854 59.9224Z" fill="#A0616A"/>
<path d="M128.146 72.1768L105.037 93.0291L82.1752 87.6602C76.5256 87.575 74.6871 84.1865 74.6115 84.042L74.4961 83.8218L90.4906 76.3669L102.938 79.9646L120.798 67.3799L128.146 72.1768Z" fill="#3F3D56"/>
<path d="M88.1169 220.416L94.326 220.415L97.2796 196.466L88.1157 196.466L88.1169 220.416Z" fill="#A0616A"/>
<path d="M106.301 226.18L86.7865 226.181L86.7861 218.641L100.826 218.641C102.278 218.641 103.67 219.217 104.697 220.244C105.724 221.271 106.301 222.663 106.301 224.115L106.301 226.18Z" fill="#2F2E41"/>
<path d="M63.3001 220.416L69.5092 220.415L72.4632 196.466L63.2993 196.466L63.3001 220.416Z" fill="#A0616A"/>
<path d="M81.4844 226.18L61.9701 226.181L61.9697 218.641L76.0092 218.641C76.7282 218.641 77.4401 218.782 78.1044 219.057C78.7686 219.333 79.3722 219.736 79.8806 220.244C80.389 220.752 80.7923 221.356 81.0674 222.02C81.3426 222.684 81.4843 223.396 81.4843 224.115L81.4844 226.18Z" fill="#2F2E41"/>
<path d="M61.0918 132.997L61.5982 168.449L62.105 215.044L73.2468 214.031L78.8181 149.711L85.9086 214.031H97.4115L98.5701 149.204L94.5184 135.023L61.0918 132.997Z" fill="#2F2E41"/>
<path d="M82.8999 137.758C70.7765 137.759 59.6171 132.272 59.4665 132.197L59.3413 132.134L58.324 107.719C58.029 106.856 52.2197 89.8311 51.2358 84.4198C50.2389 78.9374 64.6865 74.1258 66.4409 73.5632L66.839 69.1528L83.0293 67.4082L85.0813 73.0515L90.8897 75.2294C91.5482 75.4765 92.0932 75.9566 92.4213 76.5787C92.7495 77.2007 92.8381 77.9216 92.6703 78.6046L89.4421 91.7326L97.3265 135.166L95.629 135.24C91.5604 137.077 87.1691 137.758 82.8999 137.758Z" fill="#3F3D56"/>
<path d="M81.1594 63.1859C86.8085 60.0978 88.8846 53.015 85.7965 47.3659C82.7084 41.7169 75.6256 39.6408 69.9766 42.7289C64.3275 45.8169 62.2514 52.8998 65.3395 58.5488C68.4275 64.1979 75.5104 66.2739 81.1594 63.1859Z" fill="#A0616A"/>
<path d="M66.1266 64.2427C68.3482 66.6091 72.4739 65.3388 72.7634 62.1059C72.7861 61.8549 72.7845 61.6023 72.7585 61.3516C72.609 59.9196 71.7817 58.6195 71.9799 57.1075C72.0247 56.7311 72.1649 56.3725 72.3872 56.0656C74.1575 53.695 78.3131 57.1259 79.9839 54.9798C81.0083 53.6639 79.8041 51.5922 80.5903 50.1214C81.6279 48.1803 84.7012 49.1379 86.6285 48.0748C88.7729 46.892 88.6446 43.6019 87.233 41.6008C85.5116 39.1602 82.4933 37.858 79.5126 37.6703C76.5319 37.4826 73.5718 38.2884 70.7891 39.3728C67.6274 40.605 64.492 42.3078 62.5464 45.088C60.1802 48.4689 59.9525 53.0142 61.1359 56.9676C61.8557 59.3725 64.3125 62.3103 66.1266 64.2427Z" fill="#2F2E41"/>
<path d="M148.123 226.481H0.387757C0.284918 226.481 0.186284 226.44 0.113565 226.367C0.0408467 226.294 0 226.196 0 226.093C0 225.99 0.0408467 225.891 0.113565 225.819C0.186284 225.746 0.284918 225.705 0.387757 225.705H148.123C148.226 225.705 148.325 225.746 148.397 225.819C148.47 225.891 148.511 225.99 148.511 226.093C148.511 226.196 148.47 226.294 148.397 226.367C148.325 226.44 148.226 226.481 148.123 226.481Z" fill="#CACACA"/>
<path d="M130.678 52.9103C130.335 52.9107 130.005 52.781 129.754 52.5475L123.489 46.7283C123.226 46.4833 123.071 46.1437 123.058 45.7842C123.044 45.4248 123.175 45.0748 123.419 44.8113C123.664 44.5477 124.004 44.3921 124.363 44.3787C124.722 44.3652 125.073 44.495 125.336 44.7395L130.643 49.6687L141.142 39.1697C141.268 39.0429 141.418 38.9422 141.583 38.8733C141.747 38.8045 141.924 38.7689 142.103 38.7686C142.282 38.7682 142.459 38.8032 142.624 38.8714C142.789 38.9396 142.939 39.0398 143.065 39.1661C143.192 39.2925 143.292 39.4425 143.36 39.6077C143.428 39.7728 143.463 39.9498 143.463 40.1285C143.462 40.3071 143.427 40.484 143.358 40.6488C143.289 40.8137 143.188 40.9633 143.061 41.0892L131.638 52.5129C131.512 52.639 131.362 52.7391 131.197 52.8073C131.032 52.8755 130.856 52.9105 130.678 52.9103Z" fill="white"/>
</g>
<defs>
<clipPath id="clip0_1480_8010">
<rect width="264" height="226.54" fill="white"/>
</clipPath>
</defs>
</svg>
