<svg width="298" height="279" viewBox="0 0 298 279" fill="none" xmlns="http://www.w3.org/2000/svg">
<path d="M210.399 92.9596L168.772 73.0447C168.772 73.0447 154.794 58.8815 146.015 52.4841C137.236 46.0868 134.533 50.7865 134.533 50.7865L130.843 56.4453L139.761 67.8574L163.852 86.626L206.897 102.138C207.571 103.152 208.543 103.97 209.701 104.496C210.859 105.022 212.156 105.235 213.44 105.11C214.725 104.985 215.944 104.527 216.957 103.79C217.97 103.053 218.735 102.066 219.163 100.945C219.591 99.8234 219.664 98.6135 219.374 97.4554C219.085 96.2974 218.444 95.2388 217.526 94.4025C216.608 93.5663 215.451 92.9869 214.19 92.7314C212.928 92.476 211.614 92.5551 210.399 92.9596Z" fill="#9F616A"/>
<path d="M102.123 75.7363L99.6589 61.8646L92.7001 60.2641C92.7001 60.2641 87.1773 58.699 85.8864 68.9338C84.5955 79.1687 85.5964 98.2776 85.5964 98.2776L71.4677 139.44C70.2924 139.943 69.2967 140.743 68.5963 141.746C67.896 142.75 67.5199 143.916 67.5119 145.108C67.5038 146.301 67.8641 147.471 68.5509 148.482C69.2376 149.493 70.2226 150.304 71.3909 150.821C72.5593 151.337 73.8631 151.537 75.1504 151.398C76.4377 151.259 77.6556 150.787 78.6623 150.036C79.669 149.285 80.423 148.286 80.8366 147.156C81.2502 146.025 81.3063 144.81 80.9983 143.652L99.5141 104.68L102.123 75.7363Z" fill="#9F616A"/>
<path d="M159.682 270.403L168.788 270.403L173.12 238.089L159.68 238.089L159.682 270.403Z" fill="#9F616A"/>
<path d="M157.359 267.668L175.292 267.667H175.293C178.324 267.668 181.231 268.775 183.374 270.747C185.517 272.719 186.721 275.393 186.721 278.182V278.523L157.36 278.524L157.359 267.668Z" fill="#2F2E41"/>
<path d="M60.3621 270.403L69.4684 270.403L73.8001 238.089L60.3608 238.089L60.3621 270.403Z" fill="#9F616A"/>
<path d="M58.0396 267.668L75.9726 267.667H75.9733C79.0042 267.668 81.911 268.775 84.0541 270.747C86.1973 272.719 87.4015 275.393 87.4017 278.182V278.523L58.0401 278.524L58.0396 267.668Z" fill="#2F2E41"/>
<path d="M105.317 48.0261L90.2137 59.8883L102.609 95.9764L105.406 104.035C105.406 104.035 88.328 118.521 77.7615 158.989C67.1949 199.456 49.9092 253.228 49.9092 253.228L86.3964 262.837L116.081 171.295L150.997 243.112L155.029 264.354L186.101 255.925L178.771 202.652L142.124 110.436L145.93 85.9915C145.93 85.9915 151.647 73.7902 141.716 60.8724L138.601 48.7343L127.442 46.2056L105.317 48.0261Z" fill="#2F2E41"/>
<path d="M130.409 41.5776H89.574C88.734 41.5768 87.9287 41.2694 87.3348 40.7229C86.7408 40.1765 86.4067 39.4356 86.4058 38.6628V22.4693C86.4058 16.7143 88.8907 11.195 93.3138 7.12559C97.7369 3.05619 103.736 0.77002 109.991 0.77002C116.247 0.77002 122.246 3.05619 126.669 7.12559C131.092 11.195 133.577 16.7143 133.577 22.4693V38.6628C133.576 39.4356 133.242 40.1765 132.648 40.7229C132.054 41.2694 131.249 41.5768 130.409 41.5776Z" fill="#2F2E41"/>
<path d="M130.011 32.9225C134.592 25.2129 131.512 15.5465 123.132 11.332C114.752 7.11752 104.246 9.95091 99.6649 17.6606C95.0841 25.3702 98.1638 35.0366 106.544 39.2511C114.923 43.4656 125.43 40.6322 130.011 32.9225Z" fill="#9F616A"/>
<path d="M139.156 24.0886H114.187L113.931 20.7904L112.651 24.0886H108.806L108.299 17.5517L105.761 24.0886H98.3218V23.7647C98.3273 19.2138 100.295 14.8508 103.792 11.6328C107.29 8.41487 112.032 6.60476 116.979 6.59961H120.499C125.446 6.60475 130.188 8.41485 133.686 11.6328C137.183 14.8508 139.151 19.2138 139.156 23.7647V24.0886Z" fill="#2F2E41"/>
<path d="M113.983 44.6006C113.795 44.6004 113.607 44.5852 113.422 44.555L95.1387 41.5871V13.7861H115.265L114.767 14.3207C107.834 21.7595 113.057 33.8218 116.788 40.3498C117.063 40.8279 117.185 41.3677 117.142 41.9071C117.098 42.4465 116.889 42.9636 116.54 43.3987C116.247 43.7708 115.863 44.0737 115.419 44.2827C114.974 44.4916 114.482 44.6006 113.983 44.6006Z" fill="#2F2E41"/>
<path d="M265.188 190.348L104.949 242.471C100.987 243.755 96.6334 243.541 92.8429 241.875C89.0525 240.21 86.1349 237.229 84.7302 233.587L57.2035 161.957C55.8077 158.312 56.0405 154.307 57.8508 150.819C59.6611 147.332 62.901 144.648 66.8597 143.356L227.098 91.2325C231.06 89.9484 235.414 90.1625 239.204 91.828C242.995 93.4935 245.912 96.4743 247.317 100.116L274.844 171.746C276.24 175.391 276.007 179.397 274.197 182.884C272.386 186.371 269.146 189.056 265.188 190.348Z" fill="white"/>
<path d="M274.844 171.746L274.989 172.125C276.326 175.606 276.106 179.433 274.376 182.764C272.646 186.096 269.548 188.658 265.765 189.888L104.725 242.272C100.942 243.502 96.7831 243.3 93.1627 241.709C89.5422 240.118 86.7568 237.269 85.4191 233.789L85.2734 233.41L274.844 171.746Z" fill="#F2F2F2"/>
<path d="M94.9491 159.987C84.3277 166.417 70.7149 161.578 65.9541 154.529L66.7131 154.132C75.7555 148.947 89.1841 151.836 94.9491 159.987Z" fill="#9747FF"/>
<path d="M228.051 178.23C225.451 179.075 223.111 179.036 221.093 178.114C216.533 176.03 214.393 169.849 212.674 164.882C212.173 163.438 211.701 162.073 211.22 160.957L211.213 160.94C210.376 158.728 210.522 156.3 211.619 154.186C212.716 152.071 214.675 150.44 217.071 149.647L238.625 142.636C241.221 141.792 243.559 141.83 245.575 142.751C250.134 144.833 252.276 151.011 253.997 155.976C254.499 157.424 254.972 158.791 255.455 159.908C256.297 162.123 256.154 164.555 255.057 166.673C253.961 168.792 251.999 170.426 249.599 171.22L228.051 178.23ZM212.116 160.64C212.608 161.782 213.084 163.158 213.589 164.614C215.253 169.422 217.324 175.405 221.52 177.323C223.321 178.146 225.353 178.17 227.731 177.397L249.278 170.388C251.436 169.674 253.201 168.205 254.19 166.301C255.178 164.397 255.31 162.211 254.556 160.218C254.068 159.089 253.589 157.707 253.082 156.244C251.416 151.439 249.343 145.457 245.148 143.542C243.349 142.72 241.32 142.697 238.945 143.469L217.393 150.48C215.237 151.193 213.474 152.66 212.486 154.563C211.498 156.465 211.365 158.648 212.116 160.64Z" fill="#3F3D56"/>
<path d="M90.4822 162.302C86.6948 163.51 82.6149 163.716 78.7064 162.897C72.9984 161.744 67.8182 158.609 65.1875 154.715L64.9238 154.325L66.1085 153.705C75.2869 148.445 89.0502 151.297 94.9911 159.694L95.2516 160.063L94.8527 160.304C93.4892 161.13 92.0216 161.801 90.4822 162.302ZM66.2745 154.635C68.8491 158.154 73.6398 160.969 78.9124 162.035C84.0377 163.136 89.4283 162.336 93.9168 159.807C88.1056 152.073 75.2307 149.508 66.6084 154.46L66.2745 154.635Z" fill="#3F3D56"/>
<path d="M96.1114 213.713C94.7658 214.203 93.3006 214.347 91.873 214.129C90.4454 213.911 89.1093 213.339 88.0081 212.475C86.7191 211.439 85.7419 210.114 85.1708 208.63C84.5996 207.145 84.4537 205.55 84.7471 203.998C85.0196 202.663 85.6886 201.423 86.6799 200.416C87.6713 199.41 88.9462 198.675 90.3635 198.294L119.081 188.952C120.444 188.433 121.937 188.269 123.394 188.48C124.851 188.691 126.217 189.268 127.341 190.148C128.629 191.185 129.605 192.509 130.176 193.994C130.746 195.479 130.892 197.074 130.598 198.625C130.031 201.352 128.03 203.36 124.98 204.322L96.2616 213.663C96.2115 213.68 96.1614 213.697 96.1114 213.713ZM90.5421 199.172C89.3167 199.52 88.2176 200.168 87.3628 201.048C86.508 201.927 85.9298 203.004 85.6903 204.164C85.426 205.562 85.5575 206.999 86.072 208.336C86.5866 209.674 87.467 210.867 88.6282 211.801C89.6237 212.577 90.8334 213.084 92.123 213.266C93.4127 213.448 94.732 213.298 95.9347 212.832L124.667 203.486C125.921 203.154 127.051 202.508 127.932 201.62C128.812 200.733 129.408 199.639 129.654 198.459C129.919 197.061 129.788 195.625 129.275 194.287C128.761 192.949 127.881 191.756 126.72 190.822C125.723 190.047 124.513 189.539 123.223 189.356C121.933 189.173 120.613 189.321 119.408 189.783L90.6741 199.13C90.6299 199.143 90.5857 199.157 90.5421 199.172Z" fill="#3F3D56"/>
<path d="M228.243 157.155L219.19 160.099C218.589 160.295 217.929 160.263 217.355 160.01C216.78 159.758 216.338 159.306 216.126 158.753C215.914 158.201 215.949 157.594 216.223 157.065C216.498 156.537 216.989 156.13 217.589 155.935L226.642 152.99C227.242 152.795 227.902 152.827 228.477 153.079C229.051 153.332 229.493 153.784 229.706 154.336C229.918 154.888 229.883 155.496 229.609 156.024C229.334 156.553 228.843 156.959 228.243 157.155Z" fill="#9747FF"/>
<path d="M230.804 163.818L221.751 166.763C221.15 166.958 220.49 166.926 219.916 166.673C219.341 166.421 218.899 165.969 218.687 165.416C218.475 164.864 218.51 164.257 218.784 163.728C219.059 163.2 219.55 162.793 220.15 162.598L229.203 159.653C229.803 159.458 230.463 159.49 231.038 159.742C231.612 159.995 232.054 160.447 232.267 160.999C232.479 161.551 232.444 162.159 232.17 162.687C231.895 163.216 231.404 163.622 230.804 163.818Z" fill="#9747FF"/>
<path d="M233.364 170.481L224.311 173.426C224.014 173.522 223.699 173.564 223.384 173.549C223.069 173.533 222.761 173.461 222.476 173.336C222.192 173.211 221.937 173.036 221.726 172.82C221.515 172.605 221.353 172.353 221.248 172.08C221.143 171.806 221.097 171.516 221.114 171.227C221.13 170.937 221.209 170.653 221.345 170.391C221.481 170.13 221.671 169.895 221.906 169.701C222.14 169.507 222.414 169.358 222.711 169.261L231.764 166.316C232.061 166.22 232.376 166.178 232.691 166.193C233.006 166.208 233.314 166.281 233.599 166.406C233.883 166.531 234.138 166.706 234.349 166.921C234.56 167.137 234.722 167.389 234.827 167.662C234.932 167.936 234.978 168.226 234.961 168.515C234.944 168.805 234.866 169.089 234.73 169.35C234.594 169.612 234.404 169.847 234.169 170.041C233.935 170.234 233.661 170.384 233.364 170.481Z" fill="#9747FF"/>
<path d="M244.086 152.001L235.033 154.946C234.736 155.042 234.421 155.084 234.106 155.069C233.791 155.053 233.483 154.981 233.198 154.856C232.914 154.731 232.659 154.556 232.448 154.34C232.237 154.125 232.074 153.873 231.969 153.6C231.864 153.326 231.819 153.036 231.835 152.747C231.852 152.457 231.931 152.173 232.066 151.912C232.202 151.65 232.393 151.415 232.627 151.221C232.862 151.027 233.135 150.878 233.432 150.781L242.485 147.836C243.086 147.641 243.746 147.673 244.32 147.926C244.895 148.178 245.337 148.63 245.549 149.182C245.761 149.735 245.726 150.342 245.452 150.87C245.177 151.399 244.686 151.806 244.086 152.001Z" fill="#9747FF"/>
<path d="M246.646 158.664L237.593 161.609C237.296 161.706 236.981 161.748 236.666 161.732C236.352 161.717 236.043 161.645 235.759 161.52C235.474 161.395 235.219 161.22 235.008 161.004C234.798 160.788 234.635 160.537 234.53 160.263C234.425 159.99 234.379 159.7 234.396 159.41C234.413 159.121 234.491 158.837 234.627 158.575C234.763 158.313 234.953 158.079 235.188 157.885C235.422 157.691 235.696 157.541 235.993 157.445L245.046 154.5C245.343 154.403 245.658 154.361 245.973 154.377C246.288 154.392 246.596 154.464 246.881 154.589C247.165 154.714 247.42 154.889 247.631 155.105C247.842 155.321 248.004 155.572 248.109 155.846C248.215 156.119 248.26 156.409 248.243 156.699C248.227 156.988 248.148 157.272 248.012 157.534C247.877 157.796 247.686 158.03 247.452 158.224C247.217 158.418 246.944 158.568 246.646 158.664Z" fill="#9747FF"/>
<path d="M249.207 165.327L240.154 168.272C239.554 168.468 238.894 168.435 238.319 168.183C237.745 167.931 237.303 167.478 237.09 166.926C236.878 166.374 236.913 165.767 237.187 165.238C237.462 164.71 237.953 164.303 238.553 164.108L247.607 161.163C247.904 161.066 248.219 161.024 248.534 161.04C248.848 161.055 249.157 161.127 249.441 161.252C249.726 161.377 249.981 161.553 250.191 161.768C250.402 161.984 250.565 162.236 250.67 162.509C250.775 162.782 250.821 163.072 250.804 163.362C250.787 163.652 250.709 163.935 250.573 164.197C250.437 164.459 250.246 164.693 250.012 164.887C249.778 165.081 249.504 165.231 249.207 165.327Z" fill="#9747FF"/>
<path d="M253.311 115.709L63.7397 177.374L64.0598 178.206L253.631 116.542L253.311 115.709Z" fill="#3F3D56"/>
<path d="M265.188 190.348L104.949 242.471C100.987 243.755 96.6334 243.541 92.8429 241.875C89.0525 240.21 86.1349 237.229 84.7302 233.587L57.2035 161.957C55.8077 158.312 56.0405 154.307 57.8508 150.819C59.6611 147.332 62.901 144.648 66.8597 143.356L227.098 91.2325C231.06 89.9484 235.414 90.1625 239.204 91.828C242.995 93.4935 245.912 96.4743 247.317 100.116L274.844 171.746C276.24 175.391 276.007 179.397 274.197 182.884C272.386 186.371 269.146 189.056 265.188 190.348ZM67.1798 144.188C63.461 145.402 60.4174 147.924 58.7169 151.2C57.0164 154.476 56.7977 158.239 58.1088 161.663L85.6355 233.292C86.9551 236.714 89.6958 239.514 93.2566 241.079C96.8173 242.643 100.907 242.844 104.629 241.638L264.868 189.515C268.586 188.301 271.63 185.779 273.33 182.503C275.031 179.227 275.25 175.465 273.939 172.041L246.412 100.411C245.092 96.9895 242.351 94.1894 238.791 92.6249C235.23 91.0603 231.14 90.8591 227.418 92.0653L67.1798 144.188Z" fill="#3F3D56"/>
<path d="M297.098 278.77H0.901894C0.795305 278.77 0.693082 278.707 0.617712 278.596C0.542342 278.485 0.5 278.334 0.5 278.176C0.5 278.019 0.542342 277.867 0.617712 277.756C0.693082 277.645 0.795305 277.582 0.901894 277.582H297.098C297.205 277.582 297.307 277.645 297.382 277.756C297.458 277.867 297.5 278.019 297.5 278.176C297.5 278.334 297.458 278.485 297.382 278.596C297.307 278.707 297.205 278.77 297.098 278.77Z" fill="#CBCBCB"/>
</svg>
